<?xml version="1.0" encoding="utf-8"?>
<?xml-stylesheet type="text/css" href="../css/style.css"?>
<?xml-stylesheet type="text/css" href="../css/index.css"?>
<!-- Generator: Adobe Illustrator 22.1.0, SVG Export Plug-In . SVG Version: 6.00 Build 0)  -->
<svg version="1.1" id="Слой_1" xmlns="http://www.w3.org/2000/svg" xmlns:xlink="http://www.w3.org/1999/xlink" x="0px" y="0px"
	 viewBox="0 0 300 300" style="enable-background:new 0 0 300 300;" xml:space="preserve">
<g>
	<path d="M150.8,68.1L85.2,208.2H61.3l15.3-32.7L23,68.2L41.3,59l47.1,92.9l43.5-92.8L150.8,68.1z"/>
	<path d="M277.7,232.3l-21,9.2v-33.3h-94v33.3l-21-9.2v-43.9h14.7l24.1-115.6L205,61.6h57v126.9h15.7V232.3z M241.1,188.5V81.3
		h-40.5l-23.1,107.2H241.1z"/>
</g>
<polyline points="23,229.5 139.5,229.5 139.5,211.7 38.6,211.7 "/>
<polyline points="164.8,211.7 254.5,211.7 254.5,229.5 164.8,229.5 "/>
</svg>
